<svg xmlns="http://www.w3.org/2000/svg" width="760" height="440" viewBox="0 0 760 440">
<rect width="100%" height="100%" fill="white"/>
<line x1="72" y1="28" x2="72" y2="372" stroke="#333"/>
<line x1="72" y1="372" x2="732" y2="372" stroke="#333"/>
<text x="380.0" y="422" text-anchor="middle" font-family="Arial" font-size="14">calibration prompts n</text>
<text x="18" y="220.0" text-anchor="middle" transform="rotate(-90 18 220.0)" font-family="Arial" font-size="14">stability metric</text>
<text x="380.0" y="20" text-anchor="middle" font-family="Arial" font-size="16">CSI stability improves with calibration size</text>
<line x1="67" y1="372.00" x2="732" y2="372.00" stroke="#ddd"/>
<text x="62" y="376.00" text-anchor="end" font-family="Arial" font-size="12">0.00</text>
<line x1="67" y1="286.00" x2="732" y2="286.00" stroke="#ddd"/>
<text x="62" y="290.00" text-anchor="end" font-family="Arial" font-size="12">0.25</text>
<line x1="67" y1="200.00" x2="732" y2="200.00" stroke="#ddd"/>
<text x="62" y="204.00" text-anchor="end" font-family="Arial" font-size="12">0.50</text>
<line x1="67" y1="114.00" x2="732" y2="114.00" stroke="#ddd"/>
<text x="62" y="118.00" text-anchor="end" font-family="Arial" font-size="12">0.75</text>
<line x1="67" y1="28.00" x2="732" y2="28.00" stroke="#ddd"/>
<text x="62" y="32.00" text-anchor="end" font-family="Arial" font-size="12">1.00</text>
<line x1="72.00" y1="372" x2="72.00" y2="377" stroke="#333"/>
<text x="72.00" y="394" text-anchor="middle" font-family="Arial" font-size="12">2</text>
<line x1="292.00" y1="372" x2="292.00" y2="377" stroke="#333"/>
<text x="292.00" y="394" text-anchor="middle" font-family="Arial" font-size="12">4</text>
<line x1="732.00" y1="372" x2="732.00" y2="377" stroke="#333"/>
<text x="732.00" y="394" text-anchor="middle" font-family="Arial" font-size="12">8</text>
<polyline points="72.00,323.49 292.00,273.29 732.00,202.82" fill="none" stroke="#1f77b4" stroke-width="3"/>
<circle cx="72.00" cy="323.49" r="4.5" fill="#1f77b4"/>
<circle cx="292.00" cy="273.29" r="4.5" fill="#1f77b4"/>
<circle cx="732.00" cy="202.82" r="4.5" fill="#1f77b4"/>
<line x1="550" y1="48" x2="582" y2="48" stroke="#1f77b4" stroke-width="3"/>
<text x="590" y="52" font-family="Arial" font-size="13">Spearman</text>
<polyline points="72.00,282.42 292.00,258.05 732.00,220.61" fill="none" stroke="#d62728" stroke-width="3"/>
<circle cx="72.00" cy="282.42" r="4.5" fill="#d62728"/>
<circle cx="292.00" cy="258.05" r="4.5" fill="#d62728"/>
<circle cx="732.00" cy="220.61" r="4.5" fill="#d62728"/>
<line x1="550" y1="70" x2="582" y2="70" stroke="#d62728" stroke-width="3"/>
<text x="590" y="74" font-family="Arial" font-size="13">Top-20 Jaccard</text>
<polyline points="72.00,225.99 292.00,193.51 732.00,165.89" fill="none" stroke="#2ca02c" stroke-width="3"/>
<circle cx="72.00" cy="225.99" r="4.5" fill="#2ca02c"/>
<circle cx="292.00" cy="193.51" r="4.5" fill="#2ca02c"/>
<circle cx="732.00" cy="165.89" r="4.5" fill="#2ca02c"/>
<line x1="550" y1="92" x2="582" y2="92" stroke="#2ca02c" stroke-width="3"/>
<text x="590" y="96" font-family="Arial" font-size="13">Positive Jaccard</text>
</svg>
